{
  "asset": {
    "version": "2.0",
    "generator": "THREE.GLTFExporter r170"
  },
  "scenes": [
    {
      "name": "AuxScene",
      "nodes": [1]
    }
  ],
  "scene": 0,
  "nodes": [
    {
      "name": "mesh_0",
      "mesh": 0
    },
    {
      "children": [0]
    }
  ],
  "bufferViews": [
    {
      "buffer": 0,
      "byteOffset": 0,
      "byteLength": 7640796,
      "target": 34962,
      "byteStride": 12
    },
    {
      "buffer": 0,
      "byteOffset": 7640796,
      "byteLength": 7640796,
      "target": 34962,
      "byteStride": 12
    },
    {
      "buffer": 0,
      "byteOffset": 15281592,
      "byteLength": 5093864,
      "target": 34962,
      "byteStride": 8
    },
    {
      "buffer": 0,
      "byteOffset": 20375456,
      "byteLength": 13688028,
      "target": 34963
    },
    {
      "buffer": 0,
      "byteOffset": 34063484,
      "byteLength": 2371268
    },
    {
      "buffer": 0,
      "byteOffset": 36434752,
      "byteLength": 8849876
    },
    {
      "buffer": 0,
      "byteOffset": 45284628,
      "byteLength": 8408388
    }
  ],
  "buffers": [
    {
      "byteLength": 53693016
    }
  ],
  "accessors": [
    {
      "bufferView": 0,
      "componentType": 5126,
      "count": 636733,
      "max": [1, 0.9999690055847168, 0.9999690055847168],
      "min": [-1, -0.9999690055847168, -1],
      "type": "VEC3"
    },
    {
      "bufferView": 1,
      "componentType": 5126,
      "count": 636733,
      "max": [0.5982716679573059, 0.9476301670074463, 0.8092455863952637],
      "min": [-0.6002939939498901, -0.9506781101226807, -0.8110890984535217],
      "type": "VEC3"
    },
    {
      "bufferView": 2,
      "componentType": 5126,
      "count": 636733,
      "max": [0.999968409538269, 0.9999685287475586],
      "min": [0.000031524108635494485, 0.005690813064575195],
      "type": "VEC2"
    },
    {
      "bufferView": 3,
      "componentType": 5125,
      "count": 3422007,
      "max": [636732],
      "min": [0],
      "type": "SCALAR"
    }
  ],
  "materials": [
    {
      "pbrMetallicRoughness": {
        "metallicFactor": 1,
        "roughnessFactor": 1,
        "metallicRoughnessTexture": {
          "index": 0,
          "texCoord": 0
        },
        "baseColorTexture": {
          "index": 1,
          "texCoord": 0
        }
      },
      "normalTexture": {
        "index": 2,
        "texCoord": 0
      },
      "doubleSided": true
    }
  ],
  "textures": [
    {
      "sampler": 0,
      "source": 0
    },
    {
      "sampler": 1,
      "source": 1
    },
    {
      "sampler": 2,
      "source": 2
    }
  ],
  "samplers": [
    {
      "magFilter": 9729,
      "minFilter": 9987,
      "wrapS": 10497,
      "wrapT": 10497
    },
    {
      "magFilter": 9729,
      "minFilter": 9987,
      "wrapS": 10497,
      "wrapT": 10497
    },
    {
      "magFilter": 9729,
      "minFilter": 9987,
      "wrapS": 10497,
      "wrapT": 10497
    }
  ],
  "images": [
    {
      "mimeType": "image/png",
      "bufferView": 4
    },
    {
      "mimeType": "image/png",
      "bufferView": 5
    },
    {
      "mimeType": "image/png",
      "bufferView": 6
    }
  ],
  "meshes": [
    {
      "primitives": [
        {
          "mode": 4,
          "attributes": {
            "NORMAL": 0,
            "POSITION": 1,
            "TEXCOORD_0": 2
          },
          "indices": 3,
          "material": 0
        }
      ]
    }
  ]
}